<svg width="174" height="115" viewBox="0 0 174 115" fill="none" xmlns="http://www.w3.org/2000/svg">
<g filter="url(#filter0_d)">
<path d="M81.0219 34H57.8219V23H117.222V34H94.0219V93H81.0219V34Z" fill="white"/>
</g>
<g clip-path="url(#clip0)">
<path d="M47.7884 41.8567C47.1731 39.1778 44.6458 37.2334 41.7783 37.2334H6.69666C7.47215 40.47 10.5073 42.8917 14.1229 42.8917H29.5593V46.1482H10.0304C10.8055 49.3849 13.8411 51.8065 17.4562 51.8065H33.2359V55.0631H13.707C14.4825 58.2993 17.5177 60.7214 21.1333 60.7214H52.1184L47.7884 41.8567Z" fill="white"/>
<path d="M60.6878 49.7841C60.2691 47.9698 59.201 46.33 57.6801 45.166C56.1593 44.002 54.247 43.3607 52.2954 43.3607H52.2757L56.9182 63.4809H24.8654C26.1725 67.2135 29.8769 69.9123 34.2329 69.9123H65.332L60.6878 49.7841Z" fill="white"/>
</g>
<g clip-path="url(#clip1)">
<path d="M126.203 41.8567C126.818 39.1778 129.345 37.2334 132.213 37.2334H167.294C166.519 40.47 163.484 42.8917 159.868 42.8917H144.432V46.1482H163.961C163.186 49.3849 160.15 51.8065 156.535 51.8065H140.755V55.0631H160.284C159.509 58.2993 156.473 60.7214 152.858 60.7214H121.873L126.203 41.8567Z" fill="white"/>
<path d="M113.303 49.7841C113.722 47.9698 114.79 46.33 116.311 45.166C117.832 44.002 119.744 43.3607 121.696 43.3607H121.715L117.073 63.4809H149.126C147.819 67.2135 144.114 69.9123 139.758 69.9123H108.659L113.303 49.7841Z" fill="white"/>
</g>
<rect x="2" y="2" width="170" height="111" stroke="white" stroke-width="4"/>
<defs>
<filter id="filter0_d" x="53.8218" y="23" width="67.4" height="78" filterUnits="userSpaceOnUse" color-interpolation-filters="sRGB">
<feFlood flood-opacity="0" result="BackgroundImageFix"/>
<feColorMatrix in="SourceAlpha" type="matrix" values="0 0 0 0 0 0 0 0 0 0 0 0 0 0 0 0 0 0 127 0"/>
<feOffset dy="4"/>
<feGaussianBlur stdDeviation="2"/>
<feColorMatrix type="matrix" values="0 0 0 0 0 0 0 0 0 0 0 0 0 0 0 0 0 0 0.25 0"/>
<feBlend mode="normal" in2="BackgroundImageFix" result="effect1_dropShadow"/>
<feBlend mode="normal" in="SourceGraphic" in2="effect1_dropShadow" result="shape"/>
</filter>
<clipPath id="clip0">
<rect width="55" height="55" fill="white" transform="translate(10 26)"/>
</clipPath>
<clipPath id="clip1">
<rect width="55" height="55" fill="white" transform="matrix(-1 0 0 1 164 26)"/>
</clipPath>
</defs>
</svg>
