<svg width="341" height="62" viewBox="0 0 341 62" fill="none" xmlns="http://www.w3.org/2000/svg">
<g filter="url(#filter0_d)">
<g filter="url(#filter1_d)">
<path d="M103.97 18.3394H95.8498V14.4894H116.64V18.3394H108.52V38.9894H103.97V18.3394ZM126.12 39.2344C124.23 39.2344 122.527 38.826 121.01 38.0094C119.494 37.1927 118.304 36.061 117.44 34.6144C116.6 33.1444 116.18 31.4877 116.18 29.6444C116.18 27.801 116.6 26.156 117.44 24.7094C118.304 23.2627 119.494 22.131 121.01 21.3144C122.527 20.4977 124.23 20.0894 126.12 20.0894C128.034 20.0894 129.749 20.4977 131.265 21.3144C132.782 22.131 133.96 23.2627 134.8 24.7094C135.664 26.156 136.095 27.801 136.095 29.6444C136.095 31.4877 135.664 33.1444 134.8 34.6144C133.96 36.061 132.782 37.1927 131.265 38.0094C129.749 38.826 128.034 39.2344 126.12 39.2344ZM126.12 35.4894C127.73 35.4894 129.06 34.9527 130.11 33.8794C131.16 32.806 131.685 31.3944 131.685 29.6444C131.685 27.8944 131.16 26.4827 130.11 25.4094C129.06 24.336 127.73 23.7994 126.12 23.7994C124.51 23.7994 123.18 24.336 122.13 25.4094C121.104 26.4827 120.59 27.8944 120.59 29.6444C120.59 31.3944 121.104 32.806 122.13 33.8794C123.18 34.9527 124.51 35.4894 126.12 35.4894ZM150.639 20.0894C152.459 20.0894 154.081 20.486 155.504 21.2794C156.951 22.0727 158.082 23.1927 158.899 24.6394C159.716 26.086 160.124 27.7544 160.124 29.6444C160.124 31.5344 159.716 33.2144 158.899 34.6844C158.082 36.131 156.951 37.251 155.504 38.0444C154.081 38.8377 152.459 39.2344 150.639 39.2344C149.356 39.2344 148.177 39.0127 147.104 38.5694C146.054 38.126 145.167 37.461 144.444 36.5744V38.9894H140.279V13.0194H144.654V22.5744C145.401 21.7577 146.276 21.1394 147.279 20.7194C148.306 20.2994 149.426 20.0894 150.639 20.0894ZM150.149 35.4894C151.759 35.4894 153.077 34.9527 154.104 33.8794C155.154 32.806 155.679 31.3944 155.679 29.6444C155.679 27.8944 155.154 26.4827 154.104 25.4094C153.077 24.336 151.759 23.7994 150.149 23.7994C149.099 23.7994 148.154 24.0444 147.314 24.5344C146.474 25.001 145.809 25.6777 145.319 26.5644C144.829 27.451 144.584 28.4777 144.584 29.6444C144.584 30.811 144.829 31.8377 145.319 32.7244C145.809 33.611 146.474 34.2994 147.314 34.7894C148.154 35.256 149.099 35.4894 150.149 35.4894ZM171.174 20.0894C173.927 20.0894 176.027 20.7544 177.474 22.0844C178.944 23.391 179.679 25.3744 179.679 28.0344V38.9894H175.549V36.7144C175.012 37.531 174.242 38.161 173.239 38.6044C172.259 39.0244 171.069 39.2344 169.669 39.2344C168.269 39.2344 167.044 39.001 165.994 38.5344C164.944 38.0444 164.127 37.3794 163.544 36.5394C162.984 35.676 162.704 34.7077 162.704 33.6344C162.704 31.9544 163.322 30.6127 164.559 29.6094C165.819 28.5827 167.791 28.0694 170.474 28.0694H175.304V27.7894C175.304 26.4827 174.907 25.4794 174.114 24.7794C173.344 24.0794 172.189 23.7294 170.649 23.7294C169.599 23.7294 168.561 23.8927 167.534 24.2194C166.531 24.546 165.679 25.001 164.979 25.5844L163.264 22.3994C164.244 21.6527 165.422 21.081 166.799 20.6844C168.176 20.2877 169.634 20.0894 171.174 20.0894ZM170.579 36.0494C171.676 36.0494 172.644 35.8044 173.484 35.3144C174.347 34.801 174.954 34.0777 175.304 33.1444V30.9744H170.789C168.269 30.9744 167.009 31.8027 167.009 33.4594C167.009 34.2527 167.324 34.8827 167.954 35.3494C168.584 35.816 169.459 36.0494 170.579 36.0494ZM194.04 39.2344C192.103 39.2344 190.365 38.826 188.825 38.0094C187.285 37.1927 186.083 36.061 185.22 34.6144C184.356 33.1444 183.925 31.4877 183.925 29.6444C183.925 27.801 184.356 26.156 185.22 24.7094C186.083 23.2627 187.273 22.131 188.79 21.3144C190.33 20.4977 192.08 20.0894 194.04 20.0894C195.883 20.0894 197.493 20.4627 198.87 21.2094C200.27 21.956 201.32 23.0294 202.02 24.4294L198.66 26.3894C198.123 25.526 197.446 24.8844 196.63 24.4644C195.836 24.021 194.961 23.7994 194.005 23.7994C192.371 23.7994 191.018 24.336 189.945 25.4094C188.871 26.4594 188.335 27.871 188.335 29.6444C188.335 31.4177 188.86 32.841 189.91 33.9144C190.983 34.9644 192.348 35.4894 194.005 35.4894C194.961 35.4894 195.836 35.2794 196.63 34.8594C197.446 34.416 198.123 33.7627 198.66 32.8994L202.02 34.8594C201.296 36.2594 200.235 37.3444 198.835 38.1144C197.458 38.861 195.86 39.2344 194.04 39.2344ZM214.103 39.2344C212.166 39.2344 210.428 38.826 208.888 38.0094C207.348 37.1927 206.146 36.061 205.283 34.6144C204.42 33.1444 203.988 31.4877 203.988 29.6444C203.988 27.801 204.42 26.156 205.283 24.7094C206.146 23.2627 207.336 22.131 208.853 21.3144C210.393 20.4977 212.143 20.0894 214.103 20.0894C215.946 20.0894 217.556 20.4627 218.933 21.2094C220.333 21.956 221.383 23.0294 222.083 24.4294L218.723 26.3894C218.186 25.526 217.51 24.8844 216.693 24.4644C215.9 24.021 215.025 23.7994 214.068 23.7994C212.435 23.7994 211.081 24.336 210.008 25.4094C208.935 26.4594 208.398 27.871 208.398 29.6444C208.398 31.4177 208.923 32.841 209.973 33.9144C211.046 34.9644 212.411 35.4894 214.068 35.4894C215.025 35.4894 215.9 35.2794 216.693 34.8594C217.51 34.416 218.186 33.7627 218.723 32.8994L222.083 34.8594C221.36 36.2594 220.298 37.3444 218.898 38.1144C217.521 38.861 215.923 39.2344 214.103 39.2344ZM233.992 39.2344C232.102 39.2344 230.398 38.826 228.882 38.0094C227.365 37.1927 226.175 36.061 225.312 34.6144C224.472 33.1444 224.052 31.4877 224.052 29.6444C224.052 27.801 224.472 26.156 225.312 24.7094C226.175 23.2627 227.365 22.131 228.882 21.3144C230.398 20.4977 232.102 20.0894 233.992 20.0894C235.905 20.0894 237.62 20.4977 239.137 21.3144C240.653 22.131 241.832 23.2627 242.672 24.7094C243.535 26.156 243.967 27.801 243.967 29.6444C243.967 31.4877 243.535 33.1444 242.672 34.6144C241.832 36.061 240.653 37.1927 239.137 38.0094C237.62 38.826 235.905 39.2344 233.992 39.2344ZM233.992 35.4894C235.602 35.4894 236.932 34.9527 237.982 33.8794C239.032 32.806 239.557 31.3944 239.557 29.6444C239.557 27.8944 239.032 26.4827 237.982 25.4094C236.932 24.336 235.602 23.7994 233.992 23.7994C232.382 23.7994 231.052 24.336 230.002 25.4094C228.975 26.4827 228.462 27.8944 228.462 29.6444C228.462 31.3944 228.975 32.806 230.002 33.8794C231.052 34.9527 232.382 35.4894 233.992 35.4894Z" fill="white"/>
</g>
<g clip-path="url(#clip0)">
<path d="M49.7569 15.5272C49.0118 12.904 45.9515 11 42.4794 11H0C0.939022 14.1694 4.61422 16.5408 8.99222 16.5408H27.6837V19.7296H4.03678C4.97526 22.899 8.651 25.2704 13.0285 25.2704H32.1357V28.4592H8.48869C9.42771 31.6282 13.1029 34 17.4809 34H55L49.7569 15.5272Z" fill="white"/>
<path d="M65.3764 23.2899C64.8694 21.5134 63.5761 19.9076 61.7345 18.7678C59.893 17.628 57.5775 17 55.2143 17H55.1905L60.8119 36.7022H22C23.5828 40.3573 28.0684 43 33.3429 43H71L65.3764 23.2899Z" fill="white"/>
</g>
<g clip-path="url(#clip1)">
<path d="M290.243 15.5272C290.988 12.904 294.048 11 297.521 11H340C339.061 14.1694 335.386 16.5408 331.008 16.5408H312.316V19.7296H335.963C335.025 22.899 331.349 25.2704 326.972 25.2704H307.864V28.4592H331.511C330.572 31.6282 326.897 34 322.519 34H285L290.243 15.5272Z" fill="white"/>
<path d="M274.624 23.2899C275.131 21.5134 276.424 19.9076 278.265 18.7678C280.107 17.628 282.423 17 284.786 17H284.81L279.188 36.7022H318C316.417 40.3573 311.932 43 306.657 43H269L274.624 23.2899Z" fill="white"/>
</g>
</g>
<defs>
<filter id="filter0_d" x="0" y="0" width="340.011" height="61.8573" filterUnits="userSpaceOnUse" color-interpolation-filters="sRGB">
<feFlood flood-opacity="0" result="BackgroundImageFix"/>
<feColorMatrix in="SourceAlpha" type="matrix" values="0 0 0 0 0 0 0 0 0 0 0 0 0 0 0 0 0 0 127 0"/>
<feOffset dy="4"/>
<feGaussianBlur stdDeviation="2"/>
<feColorMatrix type="matrix" values="0 0 0 0 0 0 0 0 0 0 0 0 0 0 0 0 0 0 0.25 0"/>
<feBlend mode="normal" in2="BackgroundImageFix" result="effect1_dropShadow"/>
<feBlend mode="normal" in="SourceGraphic" in2="effect1_dropShadow" result="shape"/>
</filter>
<filter id="filter1_d" x="91.8499" y="13.0194" width="156.117" height="34.215" filterUnits="userSpaceOnUse" color-interpolation-filters="sRGB">
<feFlood flood-opacity="0" result="BackgroundImageFix"/>
<feColorMatrix in="SourceAlpha" type="matrix" values="0 0 0 0 0 0 0 0 0 0 0 0 0 0 0 0 0 0 127 0"/>
<feOffset dy="4"/>
<feGaussianBlur stdDeviation="2"/>
<feColorMatrix type="matrix" values="0 0 0 0 0 0 0 0 0 0 0 0 0 0 0 0 0 0 0.25 0"/>
<feBlend mode="normal" in2="BackgroundImageFix" result="effect1_dropShadow"/>
<feBlend mode="normal" in="SourceGraphic" in2="effect1_dropShadow" result="shape"/>
</filter>
<clipPath id="clip0">
<rect width="66.598" height="53.8573" fill="white" transform="translate(4)"/>
</clipPath>
<clipPath id="clip1">
<rect width="66.598" height="53.8573" fill="white" transform="matrix(-1 0 0 1 336.011 0)"/>
</clipPath>
</defs>
</svg>
