<?xml version="1.0" standalone="no"?>
<!DOCTYPE svg PUBLIC "-//W3C//DTD SVG 20010904//EN"
 "http://www.w3.org/TR/2001/REC-SVG-20010904/DTD/svg10.dtd">
<svg version="1.0" xmlns="http://www.w3.org/2000/svg"
 width="700.000000pt" height="700.000000pt" viewBox="0 0 700.000000 700.000000"
 preserveAspectRatio="xMidYMid meet">
<metadata>
Created by potrace 1.11, written by Peter Selinger 2001-2013
</metadata>
<g transform="translate(0.000000,700.000000) scale(0.100000,-0.100000)"
fill="#000000" stroke="none">
<path d="M1893 5372 c-23 -3 -23 -5 -24 -175 0 -188 0 -408 1 -419 0 -5 16 -8
36 -8 25 0 33 -4 28 -12 -6 -10 -4 -10 7 0 7 6 36 12 65 12 33 0 54 -5 57 -12
4 -10 6 -10 6 0 1 8 19 12 57 12 41 0 53 -3 48 -12 -6 -10 -4 -10 7 0 7 6 37
12 67 12 43 0 53 -3 49 -15 -4 -8 -2 -17 4 -20 5 -4 9 -3 8 2 -5 28 4 33 57
33 30 0 53 -4 50 -8 -3 -5 1 -9 9 -9 8 0 12 4 9 9 -3 4 7 8 21 8 14 0 24 -4
21 -8 -3 -5 1 -9 9 -9 8 0 12 4 9 8 -2 4 88 8 200 9 156 0 205 -3 209 -12 4
-10 6 -10 6 0 1 8 19 12 57 12 41 0 53 -3 48 -12 -6 -10 -4 -10 7 0 16 14 63
17 54 2 -3 -5 -1 -10 4 -10 6 0 11 5 11 10 0 6 10 10 23 10 l23 0 0 -1606 c-1
-883 2 -1611 5 -1616 4 -6 13 -8 21 -5 8 3 21 1 29 -3 8 -6 17 -4 22 3 7 9 10
9 14 -1 2 -6 10 -9 16 -5 18 11 261 9 270 -2 4 -6 11 -4 18 5 8 11 12 12 16 2
2 -6 9 -9 15 -6 18 11 148 10 148 -1 0 -7 3 -6 8 0 11 17 37 11 34 -7 -1 -9 2
-19 8 -23 5 -3 8 0 5 7 -3 7 0 20 5 28 9 13 11 13 20 0 8 -13 10 -13 10 -1 0
11 4 9 15 -5 11 -13 14 -14 13 -4 -2 8 3 14 10 13 7 -2 12 9 12 30 1 17 1 730
1 1582 1 1164 4 1554 12 1564 9 12 9 13 0 7 -9 -5 -13 1 -13 18 0 24 3 26 46
26 33 0 43 -3 38 -12 -6 -10 -4 -10 7 0 7 6 37 12 67 12 40 0 51 -3 46 -12 -6
-10 -4 -10 7 0 7 6 24 12 37 12 16 0 21 -4 16 -12 -6 -10 -4 -10 7 0 7 7 40
12 77 12 48 0 61 -3 56 -12 -6 -10 -4 -10 7 0 7 6 36 12 65 12 33 0 54 -5 57
-12 4 -9 6 -10 6 -1 1 18 427 18 434 1 4 -10 6 -10 6 0 1 8 19 12 57 12 41 0
53 -3 48 -12 -6 -10 -4 -10 7 0 16 15 123 17 114 1 -5 -7 -2 -7 11 0 11 5 26
12 36 15 15 4 16 33 15 302 l-2 297 -1600 1 c-880 1 -1610 0 -1622 -2z"/>
<path d="M2975 4751 c-3 -5 -2 -12 3 -15 5 -3 9 1 9 9 0 17 -3 19 -12 6z"/>
<path d="M4895 4751 c-3 -5 -2 -12 3 -15 5 -3 9 1 9 9 0 17 -3 19 -12 6z"/>
<path d="M1900 4740 c8 -5 20 -10 25 -10 6 0 3 5 -5 10 -8 5 -19 10 -25 10 -5
0 -3 -5 5 -10z"/>
<path d="M2930 4739 c0 -5 5 -7 10 -4 6 3 10 8 10 11 0 2 -4 4 -10 4 -5 0 -10
-5 -10 -11z"/>
<path d="M3890 4739 c0 -5 5 -7 10 -4 6 3 10 8 10 11 0 2 -4 4 -10 4 -5 0 -10
-5 -10 -11z"/>
<path d="M4455 4740 c3 -5 8 -10 11 -10 2 0 4 5 4 10 0 6 -5 10 -11 10 -5 0
-7 -4 -4 -10z"/>
<path d="M4850 4739 c0 -5 5 -7 10 -4 6 3 10 8 10 11 0 2 -4 4 -10 4 -5 0 -10
-5 -10 -11z"/>
<path d="M3069 4723 c-13 -16 -12 -17 4 -4 9 7 17 15 17 17 0 8 -8 3 -21 -13z"/>
<path d="M2319 4713 c-13 -16 -12 -17 4 -4 9 7 17 15 17 17 0 8 -8 3 -21 -13z"/>
<path d="M6 4293 c21 -93 105 -198 188 -234 49 -21 65 -22 376 -24 179 -1 328
-3 331 -4 4 0 6 -36 5 -78 l-1 -78 -382 -1 c-211 0 -385 -3 -388 -5 -8 -9 35
-110 66 -155 32 -47 94 -94 148 -112 23 -8 141 -12 367 -12 l334 0 0 -82 0
-83 -382 0 -383 0 2 -28 c6 -73 87 -183 167 -225 l51 -27 648 -3 c356 -1 647
-1 647 1 0 4 -17 97 -25 142 -3 17 -7 39 -9 50 -2 11 -9 49 -16 85 -7 36 -14
72 -15 80 -4 29 -20 121 -35 195 -5 28 -12 64 -15 80 -2 17 -9 55 -15 85 -6
30 -13 71 -16 90 -25 165 -55 249 -109 302 -68 67 -16 63 -818 66 l-728 3 7
-28z"/>
<path d="M5544 4309 c-44 -13 -115 -79 -141 -130 -18 -35 -61 -234 -98 -449
-31 -180 -33 -194 -75 -420 -16 -90 -30 -166 -30 -167 0 -2 285 -3 633 -3 707
1 683 -1 771 73 47 39 123 173 113 199 -4 11 -76 14 -385 13 l-381 0 -3 60
c-2 33 -2 70 0 82 l3 22 347 3 c393 3 388 3 469 86 43 44 89 128 95 171 l3 25
-386 0 -385 0 0 80 1 81 330 1 c320 1 332 2 383 24 82 35 163 137 186 233 l6
27 -712 -1 c-392 0 -727 -5 -744 -10z"/>
<path d="M1810 4001 c0 -5 7 -46 16 -92 9 -46 18 -93 19 -104 22 -120 37 -209
55 -305 12 -63 24 -128 26 -145 3 -16 9 -53 15 -81 30 -156 47 -259 43 -265
-1 -3 -281 -5 -621 -5 -340 1 -623 0 -630 -2 -14 -4 -10 -19 28 -98 36 -75
112 -152 187 -190 l57 -29 658 -3 658 -3 -7 48 c-3 27 -8 57 -11 68 -4 21 -17
93 -27 155 -4 19 -9 46 -11 60 -11 54 -19 95 -40 215 -15 86 -47 259 -64 350
-6 28 -12 64 -14 80 -22 153 -107 280 -223 331 -54 24 -114 32 -114 15z"/>
<path d="M5120 4003 c-56 -19 -107 -50 -145 -87 -71 -71 -105 -155 -134 -326
-6 -36 -13 -76 -16 -90 -5 -26 -21 -114 -30 -162 -3 -16 -7 -40 -10 -55 -3
-16 -12 -66 -20 -113 -15 -86 -20 -114 -30 -160 -3 -14 -7 -43 -11 -65 -3 -22
-7 -47 -9 -55 -7 -22 -35 -183 -35 -198 0 -10 129 -12 658 -10 l657 3 57 29
c75 38 148 113 187 190 55 111 127 99 -596 99 -348 1 -633 1 -633 2 0 1 4 26
10 56 5 30 12 68 15 84 2 17 7 41 10 55 7 35 13 69 20 114 4 21 9 48 11 60 10
51 75 404 88 481 3 17 7 39 9 50 3 11 8 39 12 63 7 41 6 42 -22 41 -15 0 -35
-3 -43 -6z"/>
<path d="M3305 1520 c-3 -6 1 -7 9 -4 18 7 21 14 7 14 -6 0 -13 -4 -16 -10z"/>
<path d="M3476 1513 c-6 -14 -5 -15 5 -6 7 7 10 15 7 18 -3 3 -9 -2 -12 -12z"/>
<path d="M3625 1520 c-3 -6 1 -7 9 -4 18 7 21 14 7 14 -6 0 -13 -4 -16 -10z"/>
<path d="M3235 1489 c-4 -6 -5 -12 -2 -15 2 -3 7 2 10 11 7 17 1 20 -8 4z"/>
<path d="M3555 1489 c-4 -6 -5 -12 -2 -15 2 -3 7 2 10 11 7 17 1 20 -8 4z"/>
<path d="M3785 1480 c-3 -6 1 -7 9 -4 18 7 21 14 7 14 -6 0 -13 -4 -16 -10z"/>
</g>
</svg>
